<svg width="500" height="500" viewBox="0 0 500 500" fill="none" xmlns="http://www.w3.org/2000/svg">
<rect width="500" height="500" rx="78" fill="black"/>
<path d="M220.064 147.405V351.693C220.064 375.183 201.022 393.923 177.53 393.923C154.043 393.923 135 375.185 135 351.693V147.405C135 123.917 154.041 104.875 177.53 104.875C201.022 104.877 220.064 123.917 220.064 147.405Z" fill="white"/>
<path d="M364.515 351.698C364.515 375.187 345.475 394.228 321.984 394.228C298.494 394.228 279.454 375.188 279.454 351.698C279.454 328.207 298.493 309.17 321.984 309.17C345.475 309.17 364.515 328.206 364.515 351.698Z" fill="white"/>
<path d="M352.057 177.166C335.449 160.558 308.521 160.558 291.91 177.166L220.064 249.018L147.459 321.622C146.436 322.64 145.492 323.691 144.617 324.764C144.541 324.858 144.47 324.953 144.396 325.043C143.735 325.866 143.125 326.706 142.547 327.557C131.089 344.129 132.702 367.015 147.459 381.772C162.213 396.524 185.099 398.139 201.671 386.678C202.52 386.1 203.36 385.49 204.18 384.832C204.275 384.756 204.372 384.685 204.464 384.608C205.54 383.734 206.586 382.789 207.606 381.772L220.064 369.317V369.314L352.056 237.316C368.669 220.708 368.669 193.777 352.057 177.166Z" fill="white"/>
</svg>
